<svg width="271" height="402" viewBox="0 0 271 402" fill="none" xmlns="http://www.w3.org/2000/svg">
<path fill-rule="evenodd" clip-rule="evenodd" d="M57.1186 130.024C80.9938 86.5842 132.259 -2.08481 268.347 0.0374195C259.726 57.4045 231.871 114.77 86.9625 202.644L98.2369 211.929C64.2812 222.274 48.9392 247.852 45.5127 259.347C22.9639 334.952 93.9261 411.551 179.479 393.645C139.024 410.225 92.5997 399.945 64.4138 377.728C22.3008 333.957 22.6324 286.538 33.5751 247.078C47.3673 197.343 111.501 118.418 172.515 85.5897C93.5945 105.817 39.2123 186.727 0.746832 274.601C0.746021 249.068 0.747262 130.024 57.1186 86.5845V130.024ZM264.367 250.396C264.367 312.846 213.742 363.472 151.292 363.472C105.058 363.472 65.3051 335.724 47.7778 295.972C59.4071 346.051 104.308 383.367 157.924 383.367C220.374 383.367 270.999 332.742 270.999 270.292C270.999 254.076 267.586 238.658 261.439 224.716C263.355 232.966 264.367 241.563 264.367 250.396Z" fill="white"/>
<path d="M166.771 305.993C166.526 306.231 166.343 307.72 166.343 309.269V312.128L163.159 312.307C160.16 312.485 159.915 312.604 159.915 313.974C159.915 315.344 160.16 315.463 163.159 315.642L166.343 315.821V319.097C166.343 322.134 166.404 322.313 167.873 322.313C169.343 322.313 169.404 322.134 169.404 319.097V315.821L172.648 315.642C175.587 315.463 175.832 315.344 175.832 313.974C175.832 312.604 175.587 312.485 172.648 312.307L169.465 312.128L169.281 309.031C169.159 306.827 168.853 305.874 168.179 305.755C167.628 305.695 167.016 305.755 166.771 305.993Z" fill="white"/>
<path d="M191.975 289.413C191.73 289.652 191.546 291.141 191.546 292.689V295.548L188.363 295.727C185.363 295.906 185.118 296.025 185.118 297.395C185.118 298.765 185.363 298.884 188.363 299.063L191.546 299.241V302.517C191.546 305.555 191.608 305.734 193.077 305.734C194.546 305.734 194.607 305.555 194.607 302.517V299.241L197.852 299.063C200.79 298.884 201.035 298.765 201.035 297.395C201.035 296.025 200.79 295.906 197.852 295.727L194.668 295.548L194.485 292.451C194.362 290.247 194.056 289.294 193.383 289.175C192.832 289.116 192.22 289.175 191.975 289.413Z" fill="white"/>
<path d="M142.896 259.569C142.651 259.807 142.467 261.296 142.467 262.845V265.704L139.284 265.882C136.284 266.061 136.039 266.18 136.039 267.55C136.039 268.92 136.284 269.039 139.284 269.218L142.467 269.397V272.673C142.467 275.71 142.528 275.889 143.998 275.889C145.467 275.889 145.528 275.71 145.528 272.673V269.397L148.773 269.218C151.711 269.039 151.956 268.92 151.956 267.55C151.956 266.18 151.711 266.061 148.773 265.882L145.589 265.704L145.406 262.606C145.283 260.403 144.977 259.45 144.304 259.331C143.753 259.271 143.141 259.331 142.896 259.569Z" fill="white"/>
<path d="M100.452 298.037C100.207 298.275 100.023 299.764 100.023 301.313V304.172L96.8397 304.351C93.84 304.529 93.5951 304.648 93.5951 306.018C93.5951 307.388 93.84 307.507 96.8397 307.686L100.023 307.865V311.141C100.023 314.178 100.084 314.357 101.553 314.357C103.023 314.357 103.084 314.178 103.084 311.141V307.865L106.328 307.686C109.267 307.507 109.512 307.388 109.512 306.018C109.512 304.648 109.267 304.529 106.328 304.351L103.145 304.172L102.961 301.075C102.839 298.871 102.533 297.918 101.86 297.799C101.309 297.739 100.696 297.799 100.452 298.037Z" fill="white"/>
<path d="M208.517 241.358C208.272 241.597 208.089 243.086 208.089 244.634V247.493L204.905 247.672C201.906 247.851 201.661 247.97 201.661 249.34C201.661 250.71 201.906 250.829 204.905 251.008L208.089 251.186V254.462C208.089 257.5 208.15 257.679 209.619 257.679C211.088 257.679 211.15 257.5 211.15 254.462V251.186L214.394 251.008C217.333 250.829 217.578 250.71 217.578 249.34C217.578 247.97 217.333 247.851 214.394 247.672L211.211 247.493L211.027 244.396C210.905 242.192 210.599 241.239 209.925 241.12C209.374 241.061 208.762 241.12 208.517 241.358Z" fill="white"/>
<path d="M82.5442 246.306C82.2993 246.545 82.1157 248.034 82.1157 249.582V252.441L78.9323 252.62C75.9326 252.799 75.6877 252.918 75.6877 254.288C75.6877 255.658 75.9326 255.777 78.9323 255.956L82.1157 256.134V259.41C82.1157 262.448 82.1769 262.627 83.6461 262.627C85.1154 262.627 85.1766 262.448 85.1766 259.41V256.134L88.4211 255.956C91.3596 255.777 91.6045 255.658 91.6045 254.288C91.6045 252.918 91.3596 252.799 88.4211 252.62L85.2378 252.441L85.0541 249.344C84.9317 247.14 84.6256 246.187 83.9522 246.068C83.4012 246.009 82.7891 246.068 82.5442 246.306Z" fill="white"/>
<path d="M140.71 206.195C140.465 206.433 140.281 207.922 140.281 209.47V212.329L137.098 212.508C134.098 212.687 133.853 212.806 133.853 214.176C133.853 215.546 134.098 215.665 137.098 215.844L140.281 216.022V219.298C140.281 222.336 140.342 222.515 141.812 222.515C143.281 222.515 143.342 222.336 143.342 219.298V216.022L146.587 215.844C149.525 215.665 149.77 215.546 149.77 214.176C149.77 212.806 149.525 212.687 146.587 212.508L143.403 212.329L143.22 209.232C143.097 207.028 142.791 206.075 142.118 205.956C141.567 205.897 140.955 205.956 140.71 206.195Z" fill="white"/>
<path d="M191.975 184.631C191.73 184.869 191.546 186.358 191.546 187.907V190.766L188.363 190.944C185.363 191.123 185.118 191.242 185.118 192.612C185.118 193.982 185.363 194.101 188.363 194.28L191.546 194.459V197.735C191.546 200.772 191.608 200.951 193.077 200.951C194.546 200.951 194.607 200.772 194.607 197.735V194.459L197.852 194.28C200.79 194.101 201.035 193.982 201.035 192.612C201.035 191.242 200.79 191.123 197.852 190.944L194.668 190.766L194.485 187.669C194.362 185.465 194.056 184.512 193.383 184.393C192.832 184.333 192.22 184.393 191.975 184.631Z" fill="white"/>
</svg>
